<?xml version="1.0" encoding="UTF-8"?><svg id="Calque_2" xmlns="http://www.w3.org/2000/svg" viewBox="0 0 4425.46 921.79"><defs><style>.cls-1{fill:#297073;}</style></defs><g id="Calque_2-2"><g><path class="cls-1" d="M2604.65,50.61l-.02-.02c-67.23-67.45-176.47-67.45-243.7,0h0v.02l-148.19,148.66-148.18-148.67h0c-67.23-67.46-176.47-67.46-243.7,0h-.01v.02L952.46,921.79h130.75c186.38,0,361.47-72.69,493.03-204.69l323.99-325.03c23.43-23.5,61.49-23.5,84.92,0l181.56,182.15c11.27,11.3,26.08,18.91,42.01,19.89,18.29,1.13,35.66-5.49,48.46-18.33l183.15-183.74c23.43-23.5,61.49-23.5,84.91,0l323.98,325.05c129.66,130.08,309.36,204.68,493.01,204.68h130.76L2604.65,50.61h0Z"/><g><path class="cls-1" d="M4312.88,114.16c-139.37,0-275.73,56.61-374.11,155.32l-246.92,247.73c-7.34,7.37-17.5,10.89-28.06,9.57-7.73-.97-14.78-4.97-20.28-10.49l-246-246.81c-98.39-98.71-234.75-155.32-374.12-155.32h-112.57l661.62,663.77c52.81,52.98,138.61,52.98,191.42,0L4425.46,114.16h-112.58Z"/><path class="cls-1" d="M1385.76,370.27l-163.16,163.69-105.74-112.87c-13.79-14.72-36.37-14.73-50.17,0l-127.49,136.06c-20.21,21.57-53.29,21.57-73.5,0l-127.46-136.05c-13.79-14.72-36.37-14.72-50.16,0l-226.22,241.44c-93.71,100.03-218.44,155.12-351.21,155.12H0L622.17,153.6c49.27-52.59,132.73-52.58,181.99,0l98.3,104.93,98.31-104.93c49.27-52.58,132.72-52.58,181.99,0h0s.01,.01,.02,.02h0l202.97,216.65Z"/></g></g></g></svg>